<svg xmlns="http://www.w3.org/2000/svg">
  <symbol viewBox="0 0 28 28" id="logo">
    <path
      d="M0 27.87v-6.237h.676l2.836 5.245 2.82-5.245h.686v6.233h-.701v-4.812l-2.57 4.816h-.476L.706 23.054v4.816H0ZM18.285 28a4.03 4.03 0 0 1-1.363-.217 2.655 2.655 0 0 1-.997-.623 1.937 1.937 0 0 1-.51-.957l.75-.109c.121.404.375.722.762.953.388.228.85.342 1.388.342.354 0 .671-.047.952-.143.28-.098.5-.236.66-.415a.923.923 0 0 0 .241-.637.793.793 0 0 0-.1-.412.867.867 0 0 0-.265-.285 1.702 1.702 0 0 0-.361-.187 3.144 3.144 0 0 0-.38-.125l-1.83-.473a3.638 3.638 0 0 1-.61-.207 2.17 2.17 0 0 1-.491-.308 1.318 1.318 0 0 1-.32-.424 1.277 1.277 0 0 1-.116-.555c0-.352.107-.657.32-.914.214-.257.506-.454.877-.593a3.54 3.54 0 0 1 1.268-.204c.48 0 .91.074 1.287.221.38.147.695.358.942.633.247.271.41.593.49.965l-.77.122a1.413 1.413 0 0 0-.346-.706c-.18-.2-.411-.352-.692-.46a2.53 2.53 0 0 0-.916-.168c-.324 0-.613.047-.867.143-.25.092-.45.22-.596.38a.801.801 0 0 0-.22.555c0 .211.066.38.2.507.137.127.304.227.5.299.201.072.395.131.582.177l1.412.36c.147.035.32.085.516.151.2.064.395.157.582.278.19.118.347.274.47.468.124.193.186.438.186.736 0 .289-.067.547-.2.775-.13.228-.316.42-.557.576a2.723 2.723 0 0 1-.836.355 4.077 4.077 0 0 1-1.042.126Z"
      fill="#316DC2" />
    <path fill-rule="evenodd" clip-rule="evenodd"
      d="M11.009 21.633 8.524 27.87h.766l.603-1.512h3.204l.607 1.512h.766l-2.485-6.237h-.976Zm1.849 4.128-1.368-3.41-1.359 3.41h-.5v.597h.262l.238-.597h2.727Z"
      fill="#316DC2" />
    <path d="M9.631 25.76v.598h.262l.238-.597h-.5Z" fill="#316DC2" />
    <path fill-rule="evenodd" clip-rule="evenodd"
      d="m24.539 21.633-2.485 6.237h.766l.603-1.512h3.204l.607 1.512H28l-2.485-6.237h-.976Zm1.848 4.128-1.367-3.41-1.359 3.41h-.5v.597h.262l.238-.597h2.726Z"
      fill="#316DC2" />
    <path
      d="M23.161 25.76v.598h.262l.238-.597h-.5ZM5.813 5.476c-.522.377-.828 1.177-.252 2.133.577.956 8.811 7.408 9.113 7.587.302.179.604.209 1.372-.418.769-.628 7.19-5.528 7.356-5.676.264-.234.33-.806 0-1.075 0 0-7.78 5.914-8.034 6.153-.255.24-.651-.15-.577-.657.075-.508.13-.568 1.118-1.344.988-.777 6.59-5.09 6.844-5.28.288-.217.295-.598-.176-.936-.656-.47-7.74-5.587-7.976-5.766-.238-.18-.567-.342-1.06.016-.494.359-6.77 4.57-7.728 5.263Z"
      fill="#316DC2" />
    <path
      d="M14.674 15.825c-.198-.117-3.811-2.935-6.435-5.13v4.575c-.002 3.34 9.26 5.124 12.327 1.019v-4.373c-1.884 1.447-4.09 3.14-4.52 3.491-.768.627-1.07.597-1.372.418Z"
      fill="#316DC2" />
    <path
      d="M18.593 10.81s1.377.702 1.475 3.533l-.667-.187-.534 1.152c-.226-3.1-1.455-3.549-1.455-3.549l1.181-.95Z"
      fill="#98B8E6" />
  </symbol>
  <symbol viewBox="0 0 16 9" id="vk">
    <path
      d="M15.857 8.027c-.043-.07-.309-.64-1.589-1.812-1.34-1.226-1.16-1.027.454-3.148.983-1.291 1.376-2.08 1.253-2.417-.117-.322-.84-.237-.84-.237l-2.404.014s-.178-.024-.31.054c-.13.077-.213.255-.213.255s-.38 1-.889 1.85c-1.071 1.793-1.5 1.887-1.675 1.776-.407-.26-.305-1.043-.305-1.6 0-1.738.267-2.462-.521-2.65C8.556.05 8.364.01 7.695.002 6.837-.007 6.11.005 5.699.203c-.274.132-.485.427-.356.444.159.02.519.095.71.352.247.33.238 1.073.238 1.073s.142 2.046-.331 2.3c-.325.175-.77-.18-1.725-1.809-.49-.833-.86-1.754-.86-1.754s-.07-.172-.198-.264c-.154-.111-.37-.147-.37-.147L.521.412S.178.422.052.57C-.06.7.043.97.043.97s1.79 4.128 3.817 6.21c1.859 1.907 3.969 1.782 3.969 1.782h.956s.289-.031.436-.188c.136-.144.13-.414.13-.414s-.018-1.265.578-1.452c.587-.183 1.341 1.223 2.14 1.764.604.41 1.063.32 1.063.32l2.137-.03s1.118-.068.588-.935Z"
      fill="currentColor" />
  </symbol>
  <symbol viewBox="0 0 10 16" id="ok">
    <path
      d="M4.5 2.42c.916 0 1.66.767 1.66 1.71 0 .94-.744 1.708-1.66 1.708-.916 0-1.66-.767-1.66-1.708 0-.943.744-1.71 1.66-1.71Zm0 5.838c2.212 0 4.011-1.852 4.011-4.127C8.511 1.851 6.712 0 4.5 0S.492 1.852.492 4.13c0 2.276 1.796 4.128 4.008 4.128Zm1.622 3.37a7.441 7.441 0 0 0 2.328-.995 1.231 1.231 0 0 0 .37-1.667 1.154 1.154 0 0 0-1.622-.381 4.97 4.97 0 0 1-5.399 0 1.15 1.15 0 0 0-1.619.38 1.231 1.231 0 0 0 .37 1.668 7.441 7.441 0 0 0 2.328.994L.635 13.934a1.236 1.236 0 0 0 0 1.71c.232.236.53.355.83.355.301 0 .602-.119.834-.355L4.5 13.377l2.204 2.267c.458.475 1.2.475 1.66 0a1.236 1.236 0 0 0 0-1.71l-2.242-2.307Z"
      fill="currentColor" />
  </symbol>
  <symbol viewBox="0 0 15 16" id="reddit">
    <path
      d="M8.362 0c-.45 0-.87.244-1.14.596-.27.352-.42.78-.528 1.233-.173.727-.226 1.533-.239 2.26a7.031 7.031 0 0 0-3.353 1.11c-.385-.347-.849-.54-1.294-.535-.506.006-.987.24-1.344.72C-.22 6.3-.14 7.8.65 8.692a4.816 4.816 0 0 0-.085.842C.566 12.554 3.446 15 7 15c3.553 0 6.434-2.448 6.434-5.466a4.82 4.82 0 0 0-.085-.842c.791-.891.87-2.391.187-3.308-.357-.48-.838-.714-1.345-.72-.444-.005-.908.188-1.293.535a7.029 7.029 0 0 0-3.336-1.11c.017-.67.061-1.366.187-1.89.079-.33.172-.568.272-.699.1-.131.173-.185.34-.185.365 0 .411.126.63.432.111.154.239.346.443.534.204.187.506.35.834.35V1.314c-.091 0-.108-.002-.17-.062-.062-.059-.147-.195-.272-.37C9.574.533 9.087 0 8.362 0Zm3.54.123c-.847 0-1.532.827-1.532 1.85 0 1.022.685 1.849 1.532 1.849s1.532-.827 1.532-1.85c0-1.022-.685-1.849-1.532-1.849Zm0 .658c.545 0 .987.534.987 1.192 0 .657-.442 1.191-.987 1.191-.544 0-.987-.534-.987-1.191 0-.658.443-1.192.987-1.192ZM7 5.116c3.015 0 5.566 2.027 5.566 4.418 0 2.394-2.551 4.418-5.566 4.418-3.015 0-5.566-2.024-5.566-4.418 0-2.391 2.551-4.418 5.566-4.418Zm-5.174.596c.15.003.308.044.46.124-.548.5-.982 1.076-1.278 1.726-.204-.509-.148-1.143.103-1.48a.863.863 0 0 1 .715-.37Zm10.348 0a.863.863 0 0 1 .715.37c.252.337.307.971.103 1.48a5.343 5.343 0 0 0-1.277-1.726c.151-.08.308-.121.46-.124ZM4.822 7.356c-.544 0-.987.534-.987 1.192 0 .657.443 1.192.987 1.192.545 0 .988-.535.988-1.192 0-.658-.443-1.192-.988-1.192Zm4.358 0c-.545 0-.988.534-.988 1.192 0 .657.443 1.192.988 1.192.544 0 .987-.535.987-1.192 0-.658-.443-1.192-.987-1.192Zm-4.885 4.048C4.64 12.27 5.713 13.11 7 13.11s2.377-.84 2.723-1.706c-.63.49-1.623.822-2.723.822-1.1 0-2.077-.331-2.706-.822Z"
      fill="currentColor" />
  </symbol>
  <symbol viewBox="0 0 10 10" id="arrow">
    <path d="m1 9 8-8m0 0H1.053M9 1v7.947" stroke="currentColor" />
  </symbol>
  <symbol viewBox="0 0 20 20" id="modal-close">
    <path d="m1 19 9-9m0 0 9-9m-9 9 9 9m-9-9L1 1" stroke="currentColor" stroke-linecap="round"
      stroke-linejoin="round" />
  </symbol>
</svg>
